<?xml version="1.0" encoding="UTF-8" standalone="no"?>
<!-- Created with Inkscape (http://www.inkscape.org/) -->

<svg
   xmlns:dc="http://purl.org/dc/elements/1.1/"
   xmlns:cc="http://creativecommons.org/ns#"
   xmlns:rdf="http://www.w3.org/1999/02/22-rdf-syntax-ns#"
   xmlns:svg="http://www.w3.org/2000/svg"
   xmlns="http://www.w3.org/2000/svg"
   xmlns:sodipodi="http://sodipodi.sourceforge.net/DTD/sodipodi-0.dtd"
   xmlns:inkscape="http://www.inkscape.org/namespaces/inkscape"
   width="120"
   height="120"
   viewBox="0 0 31.75 31.75"
   version="1.1"
   id="svg5"
   inkscape:version="0.92.2 (5c3e80d, 2017-08-06)"
   sodipodi:docname="editimage16533952317108.svg"
   inkscape:export-filename="C:\Users\otavi\Pictures\Inkscape\oulrum3.png"
   inkscape:export-xdpi="96"
   inkscape:export-ydpi="96">
  <metadata
     id="metadata13">
    <rdf:RDF>
      <cc:Work
         rdf:about="">
        <dc:format>image/svg+xml</dc:format>
        <dc:type
           rdf:resource="http://purl.org/dc/dcmitype/StillImage" />
      </cc:Work>
    </rdf:RDF>
  </metadata>
  <sodipodi:namedview
     id="namedview7"
     pagecolor="#505050"
     bordercolor="#eeeeee"
     borderopacity="1"
     inkscape:pageshadow="0"
     inkscape:pageopacity="0"
     inkscape:pagecheckerboard="0"
     inkscape:document-units="px"
     showgrid="false"
     inkscape:zoom="2.8284271"
     inkscape:cx="45.858258"
     inkscape:cy="44.448824"
     inkscape:window-width="900"
     inkscape:window-height="800"
     inkscape:window-x="0"
     inkscape:window-y="0"
     inkscape:window-maximized="1"
     inkscape:current-layer="layer1"
     inkscape:showpageshadow="0"
     inkscape:deskcolor="#505050" />
  <defs
     id="defs2">
    <clipPath
       clipPathUnits="userSpaceOnUse"
       id="clipPath4516">
      <path
         inkscape:connector-curvature="0"
         id="path4518"
         d="m 11.646539,-9.3065288 a 3.4395275,3.4395278 0 0 0 -3.4393227,3.4398429 3.4395275,3.4395278 0 0 0 3.4393227,3.4393238 3.4395275,3.4395278 0 0 0 3.439843,-3.4393238 3.4395275,3.4395278 0 0 0 -3.439843,-3.4398429 z m 0,1.486108 a 1.9537108,1.9537109 0 0 1 1.953735,1.9537349 1.9537108,1.9537109 0 0 1 -1.953735,1.9537357 1.9537108,1.9537109 0 0 1 -1.9537347,-1.9537357 1.9537108,1.9537109 0 0 1 1.9537347,-1.9537349 z"
         style="opacity:1;fill:#ffffff;fill-opacity:1;stroke:none;stroke-width:0.18777816;stroke-opacity:1" />
    </clipPath>
  </defs>
  <g
     inkscape:label="Camada 1"
     inkscape:groupmode="layer"
     id="layer1">
    <path
       id="path846"
       style="fill:#1a1a1a;fill-opacity:1;stroke:none;stroke-width:0.12265798;stroke-linecap:round;stroke-linejoin:round;stroke-opacity:1"
       inkscape:transform-center-x="2.2378485"
       inkscape:transform-center-y="-1.4262125"
       d="M 13.402467,0.63758736 C 11.431205,0.73693536 10.037876,2.0923222 6.4587047,5.2703796 0.09573345,10.92026 0.27103844,10.392005 1.9824921,18.72744 c 1.7114537,8.335435 1.3420547,7.919482 9.4164799,10.605037 8.074425,2.685556 7.52972,2.797341 13.892692,-2.852539 6.362971,-5.64988 6.18715,-5.121625 4.475695,-13.45706 C 28.055905,4.6874434 28.425305,5.1033955 20.35088,2.4178405 16.818319,1.2429102 14.935671,0.56031656 13.402467,0.63758736 Z m 0.572058,3.52381594 c 1.17865,-0.059402 2.625622,0.4651649 5.341276,1.3683919 6.20721,2.064519 5.923672,1.7446129 7.239352,8.1524748 1.315679,6.407861 1.450396,6.002279 -3.441134,10.345621 -4.891531,4.343342 -4.472758,4.25715 -10.679968,2.192631 C 6.2268405,24.156003 6.5108951,24.47591 5.1952159,18.068048 3.8795369,11.660187 3.7448187,12.065769 8.6363496,7.7224263 11.387836,5.2792963 12.459118,4.2377773 13.974525,4.1614033 Z"
       inkscape:connector-curvature="0" />
    <text
       xml:space="preserve"
       style="font-style:normal;font-variant:normal;font-weight:normal;font-stretch:normal;font-size:13.671px;line-height:1.25;font-family:Arial;-inkscape-font-specification:Arial;fill:#ffffff;fill-opacity:1;stroke:none;stroke-width:0.341776"
       x="48.127319"
       y="26.29147"
       id="text2890"><tspan
         sodipodi:role="line"
         id="tspan2888"
         style="font-style:normal;font-variant:normal;font-weight:normal;font-stretch:normal;font-family:Arial;-inkscape-font-specification:Arial;fill:#ffffff;fill-opacity:1;stroke-width:0.341776"
         x="48.127319"
         y="26.29147">Oul</tspan></text>
    <ellipse
       style="fill:#ffffff;fill-opacity:0;stroke-width:0.264583"
       id="path297"
       cx="42.121956"
       cy="3.9594867"
       rx="5.3049898"
       ry="5.9722838" />
    <ellipse
       style="fill:#ffffff;fill-opacity:0;stroke-width:0.264583"
       id="path977"
       cx="57.312382"
       cy="8.9838161"
       rx="5.9113808"
       ry="6.7228675" />
    <g
       id="g3760"
       transform="translate(0.53555205,0.3740375)">
      <path
         inkscape:connector-curvature="0"
         id="path979"
         d="M 9.514377,12.061379 A 3.4395275,3.4395277 0 0 0 6.0750537,15.501222 3.4395275,3.4395277 0 0 0 9.514377,18.940546 3.4395275,3.4395277 0 0 0 12.95422,15.501222 3.4395275,3.4395277 0 0 0 9.514377,12.061379 Z m 0,1.486108 a 1.9537108,1.9537109 0 0 1 1.953735,1.953735 1.9537108,1.9537109 0 0 1 -1.953735,1.953736 1.9537108,1.9537109 0 0 1 -1.9537352,-1.953736 1.9537108,1.9537109 0 0 1 1.9537352,-1.953735 z"
         style="opacity:1;fill:#1a1a1a;fill-opacity:1;stroke:none;stroke-width:0.18777816;stroke-opacity:1" />
      <g
         transform="translate(-0.0752133,-1.5948419)"
         id="g3732">
        <path
           style="fill:#1a1a1a;fill-opacity:1;stroke-width:0.28619614"
           id="path4512"
           sodipodi:type="arc"
           sodipodi:cx="11.646799"
           sodipodi:cy="-5.8669453"
           sodipodi:rx="3.4395833"
           sodipodi:ry="3.4395833"
           sodipodi:start="0"
           sodipodi:end="3.1415927"
           d="m 15.086382,-5.8669453 a 3.4395833,3.4395833 0 0 1 -1.719791,2.9787666 3.4395833,3.4395833 0 0 1 -3.4395837,-10e-8 3.4395833,3.4395833 0 0 1 -1.7197915,-2.9787666 l 3.4395832,10e-8 z"
           clip-path="url(#clipPath4516)"
           transform="translate(5.4876543,22.96275)" />
        <path
           style="fill:#1a1a1a;fill-opacity:1;stroke:none;stroke-width:0.25545412px;stroke-linecap:butt;stroke-linejoin:miter;stroke-opacity:1"
           d="m 13.694871,17.151748 v -1.617934 h 1.485635 v 1.617934 z"
           id="path4520"
           inkscape:connector-curvature="0"
           sodipodi:nodetypes="ccccc" />
        <path
           sodipodi:nodetypes="ccccc"
           inkscape:connector-curvature="0"
           id="path4522"
           d="m 19.088401,17.123057 v -1.617933 h 1.485635 v 1.617933 z"
           style="fill:#1a1a1a;fill-opacity:1;stroke:none;stroke-width:0.25545412px;stroke-linecap:butt;stroke-linejoin:miter;stroke-opacity:1" />
      </g>
      <g
         transform="translate(-0.10695696,-1.5948419)"
         id="g3724">
        <path
           transform="translate(13.064,22.96275)"
           clip-path="url(#clipPath4516)"
           d="M 11.646799,-2.427362 A 3.4395833,3.4395833 0 0 1 9.2146464,-3.4347926 3.4395833,3.4395833 0 0 1 8.2072158,-5.8669454 l 3.4395832,10e-8 z"
           sodipodi:end="3.1415927"
           sodipodi:start="1.5707963"
           sodipodi:ry="3.4395833"
           sodipodi:rx="3.4395833"
           sodipodi:cy="-5.8669453"
           sodipodi:cx="11.646799"
           sodipodi:type="arc"
           id="path3707"
           style="fill:#1a1a1a;fill-opacity:1;stroke-width:0.28619614" />
        <path
           sodipodi:nodetypes="ccccc"
           inkscape:connector-curvature="0"
           id="path3709"
           d="m 21.271216,17.269438 v -3.613217 h 1.485635 v 3.613217 z"
           style="fill:#1a1a1a;fill-opacity:1;stroke:none;stroke-width:0.38175038px;stroke-linecap:butt;stroke-linejoin:miter;stroke-opacity:1" />
      </g>
    </g>
  </g>
</svg>
